HIERARCHY
ROOT hip
{
  OFFSET 0.00112043 5.09927 -9.65472
  CHANNELS 6 Xposition Yposition Zposition Zrotation Xrotation Yrotation
  JOINT abdomen
  {
    OFFSET 0 -1.186 -1.5018
    CHANNELS 3 Zrotation Xrotation Yrotation
    JOINT abdomen2
    {
      OFFSET 0 9.964 0.2134
      CHANNELS 3 Zrotation Xrotation Yrotation
      JOINT chest
      {
        OFFSET 0 13.134 -3.2573
        CHANNELS 3 Zrotation Xrotation Yrotation
        JOINT neck
        {
          OFFSET 0 20.686 -1.6905
          CHANNELS 3 Zrotation Xrotation Yrotation
          JOINT head
          {
            OFFSET 0 7.238 -0.1237
            CHANNELS 3 Zrotation Xrotation Yrotation
            End Site
            {
              OFFSET 0 0 0
            }
          }
        }
        JOINT lCollar
        {
          OFFSET 1.7069 20.075 5.0056
          CHANNELS 3 Zrotation Xrotation Yrotation
          JOINT lShldr
          {
            OFFSET 13.6458 -0.047 -4.849
            CHANNELS 3 Zrotation Xrotation Yrotation
            JOINT lForeArm
            {
              OFFSET 28.3255 -0.9759 2.2888
              CHANNELS 3 Zrotation Xrotation Yrotation
              JOINT lHand
              {
                OFFSET 22.1583 -0.53 10.8316
                CHANNELS 3 Zrotation Xrotation Yrotation
                JOINT lThumb1
                {
                  OFFSET 0.786 0.112 2.5817
                  CHANNELS 3 Zrotation Xrotation Yrotation
                  JOINT lThumb2
                  {
                    OFFSET 0.3601 -0.878 4.2331
                    CHANNELS 3 Zrotation Xrotation Yrotation
                    JOINT lThumb2_End
                    {
                      OFFSET 1.8127 -1.216 2.2227
                      CHANNELS 3 Zrotation Xrotation Yrotation
                      End Site
                      {
                        OFFSET 0.0181 -0.0122 0.0222
                      }
                    }
                  }
                }
                JOINT lCarpal1
                {
                  OFFSET 0.9571 1.114 1.7695
                  CHANNELS 3 Zrotation Xrotation Yrotation
                  JOINT lIndex1
                  {
                    OFFSET 4.1246 0.487 4.1451
                    CHANNELS 3 Zrotation Xrotation Yrotation
                    JOINT lIndex2
                    {
                      OFFSET 3.4052 -1.454 2.7682
                      CHANNELS 3 Zrotation Xrotation Yrotation
                      JOINT lIndex2_End
                      {
                        OFFSET 1.4531 -1.795 1.2713
                        CHANNELS 3 Zrotation Xrotation Yrotation
                        End Site
                        {
                          OFFSET 0.0145 -0.0179 0.0127
                        }
                      }
                    }
                  }
                  JOINT lMid1
                  {
                    OFFSET 5.6954 0.21 2.1184
                    CHANNELS 3 Zrotation Xrotation Yrotation
                    JOINT lMid2
                    {
                      OFFSET 3.9766 -1.54 2.3863
                      CHANNELS 3 Zrotation Xrotation Yrotation
                      JOINT lMid2_End
                      {
                        OFFSET 1.4042 -1.926 1.125
                        CHANNELS 3 Zrotation Xrotation Yrotation
                        End Site
                        {
                          OFFSET 0.014 -0.0193 0.0113
                        }
                      }
                    }
                  }
                }
                JOINT lCarpal2
                {
                  OFFSET 2.0956 0.66 -0.3894
                  CHANNELS 3 Zrotation Xrotation Yrotation
                  JOINT lRing1
                  {
                    OFFSET 5.0395 -0.09 2.4971
                    CHANNELS 3 Zrotation Xrotation Yrotation
                    JOINT lRing2
                    {
                      OFFSET 3.7921 -1.552 1.4806
                      CHANNELS 3 Zrotation Xrotation Yrotation
                      JOINT lRing2_End
                      {
                        OFFSET 1.4655 -1.808 0.9609
                        CHANNELS 3 Zrotation Xrotation Yrotation
                        End Site
                        {
                          OFFSET 0.0147 -0.0181 0.0096
                        }
                      }
                    }
                  }
                  JOINT lPinky1
                  {
                    OFFSET 4.9141 -1.269 0.3591
                    CHANNELS 3 Zrotation Xrotation Yrotation
                    JOINT lPinky2
                    {
                      OFFSET 3.1477 -1.685 0.8462
                      CHANNELS 3 Zrotation Xrotation Yrotation
                      JOINT lPinky2_End
                      {
                        OFFSET 0.8055 -1.585 0.7955
                        CHANNELS 3 Zrotation Xrotation Yrotation
                        End Site
                        {
                          OFFSET 0.0081 -0.0158 0.008
                        }
                      }
                    }
                  }
                }
              }
            }
          }
        }
        JOINT rCollar
        {
          OFFSET -1.7069 20.075 5.0056
          CHANNELS 3 Zrotation Xrotation Yrotation
          JOINT rShldr
          {
            OFFSET -13.6458 -0.047 -4.849
            CHANNELS 3 Zrotation Xrotation Yrotation
            JOINT rForeArm
            {
              OFFSET -28.3255 -0.9759 2.2888
              CHANNELS 3 Zrotation Xrotation Yrotation
              JOINT rHand
              {
                OFFSET -22.1583 -0.53 10.8316
                CHANNELS 3 Zrotation Xrotation Yrotation
                JOINT rThumb1
                {
                  OFFSET -0.786 0.112 2.5817
                  CHANNELS 3 Zrotation Xrotation Yrotation
                  JOINT rThumb2
                  {
                    OFFSET -0.3601 -0.878 4.2331
                    CHANNELS 3 Zrotation Xrotation Yrotation
                    JOINT rThumb2_End
                    {
                      OFFSET -1.8127 -1.216 2.2227
                      CHANNELS 3 Zrotation Xrotation Yrotation
                      End Site
                      {
                        OFFSET -0.0181 -0.0122 0.0222
                      }
                    }
                  }
                }
                JOINT rCarpal1
                {
                  OFFSET -0.9571 1.114 1.7695
                  CHANNELS 3 Zrotation Xrotation Yrotation
                  JOINT rIndex1
                  {
                    OFFSET -4.1246 0.487 4.1451
                    CHANNELS 3 Zrotation Xrotation Yrotation
                    JOINT rIndex2
                    {
                      OFFSET -3.4052 -1.454 2.7682
                      CHANNELS 3 Zrotation Xrotation Yrotation
                      JOINT rIndex2_End
                      {
                        OFFSET -1.4531 -1.795 1.2713
                        CHANNELS 3 Zrotation Xrotation Yrotation
                        End Site
                        {
                          OFFSET -0.0145 -0.018 0.0127
                        }
                      }
                    }
                  }
                  JOINT rMid1
                  {
                    OFFSET -5.6954 0.21 2.1184
                    CHANNELS 3 Zrotation Xrotation Yrotation
                    JOINT rMid2
                    {
                      OFFSET -3.9766 -1.54 2.3863
                      CHANNELS 3 Zrotation Xrotation Yrotation
                      JOINT rMid2_End
                      {
                        OFFSET -1.4042 -1.926 1.125
                        CHANNELS 3 Zrotation Xrotation Yrotation
                        End Site
                        {
                          OFFSET -0.014 -0.0193 0.0113
                        }
                      }
                    }
                  }
                }
                JOINT rCarpal2
                {
                  OFFSET -2.0956 0.66 -0.3894
                  CHANNELS 3 Zrotation Xrotation Yrotation
                  JOINT rRing1
                  {
                    OFFSET -5.0395 -0.09 2.4971
                    CHANNELS 3 Zrotation Xrotation Yrotation
                    JOINT rRing2
                    {
                      OFFSET -3.7921 -1.552 1.4806
                      CHANNELS 3 Zrotation Xrotation Yrotation
                      JOINT rRing2_End
                      {
                        OFFSET -1.4655 -1.808 0.9609
                        CHANNELS 3 Zrotation Xrotation Yrotation
                        End Site
                        {
                          OFFSET -0.0147 -0.0181 0.0096
                        }
                      }
                    }
                  }
                  JOINT rPinky1
                  {
                    OFFSET -4.9141 -1.269 0.3592
                    CHANNELS 3 Zrotation Xrotation Yrotation
                    JOINT rPinky2
                    {
                      OFFSET -3.1477 -1.685 0.8462
                      CHANNELS 3 Zrotation Xrotation Yrotation
                      JOINT rPinky2_End
                      {
                        OFFSET -0.8055 -1.585 0.7955
                        CHANNELS 3 Zrotation Xrotation Yrotation
                        End Site
                        {
                          OFFSET -0.0081 -0.0158 0.008
                        }
                      }
                    }
                  }
                }
              }
            }
          }
        }
      }
    }
  }
  JOINT lThigh
  {
    OFFSET 8.367 -8.2066 0.5982
    CHANNELS 3 Zrotation Xrotation Yrotation
    JOINT lShin
    {
      OFFSET 2.1923 -43.463 -0.4932
      CHANNELS 3 Zrotation Xrotation Yrotation
      JOINT lFoot
      {
        OFFSET 0.7333 -45.8593 -2.6451
        CHANNELS 3 Zrotation Xrotation Yrotation
        End Site
        {
          OFFSET 2.6618 -4.2699 12.3931
        }
      }
    }
  }
  JOINT rThigh
  {
    OFFSET -8.367 -8.2066 0.5982
    CHANNELS 3 Zrotation Xrotation Yrotation
    JOINT rShin
    {
      OFFSET -2.1923 -43.463 -0.4931
      CHANNELS 3 Zrotation Xrotation Yrotation
      JOINT rFoot
      {
        OFFSET -0.7333 -45.8593 -2.6451
        CHANNELS 3 Zrotation Xrotation Yrotation
        End Site
        {
          OFFSET -2.6618 -4.2699 12.3931
        }
      }
    }
  }
}
MOTION
Frames:	4
Frame Time:	0.0333333
0 91.7903 2.51682 0 0 -0 0 0 -0 0 0 -0 0 0 -0 0 0 -0 0 0 -0 0 0 -0 1.66051 0.0877878 5.75754 -0.0175111 0.895433 15.7816 -4.96962e-016 -5.96354e-016 -6.36111e-015 9.93923e-017 -3.97569e-016 -0 -1.98785e-016 0 -6.36111e-015 -2.48481e-016 -3.97569e-016 -6.36111e-015 9.93923e-017 -1.98785e-016 -0 2.48481e-016 -1.98785e-016 6.36111e-015 -1.98785e-016 -3.97569e-016 -6.36111e-015 4.96962e-017 -3.97569e-016 -0 2.48481e-016 -1.98785e-016 6.36111e-015 -1.98785e-016 -3.97569e-016 -6.36111e-015 4.96962e-017 -3.97569e-016 -0 9.93923e-017 -1.98785e-016 -0 2.48481e-016 -1.98785e-016 6.36111e-015 -1.98785e-016 -3.97569e-016 -6.36111e-015 4.96962e-017 -3.97569e-016 -0 2.48481e-016 -1.98785e-016 6.36111e-015 -1.98785e-016 -3.97569e-016 -6.36111e-015 4.96962e-017 -3.97569e-016 -0 0 0 -0 -1.4496 0.0667178 -5.02442 -1.74811 1.20616 -16.8394 1.98785e-016 5.96354e-016 -6.36111e-015 1.09332e-015 7.95139e-016 -6.36111e-015 -9.93923e-017 5.96354e-016 -9.54166e-015 3.97569e-016 5.96354e-016 -6.36111e-015 1.09332e-015 5.96354e-016 -6.36111e-015 3.97569e-016 5.96354e-016 -3.18055e-015 3.97569e-016 1.98785e-016 -0 4.96962e-016 1.98785e-016 -3.18055e-015 3.97569e-016 5.96354e-016 -3.18055e-015 3.97569e-016 1.98785e-016 -0 4.96962e-016 1.98785e-016 -3.18055e-015 1.09332e-015 5.96354e-016 -6.36111e-015 3.97569e-016 5.96354e-016 -3.18055e-015 3.97569e-016 1.98785e-016 -0 4.96962e-016 1.98785e-016 -3.18055e-015 3.97569e-016 5.96354e-016 -3.18055e-015 3.97569e-016 1.98785e-016 -0 4.96962e-016 1.98785e-016 -3.18055e-015 -4.66111 -0.998717 0.12318 0.00986924 1.54847 0.176523 4.65186 -0.572283 -0.254274 4.66111 -0.998765 -0.123176 -0.00986867 1.54869 -0.176537 -4.65186 -0.572453 0.25427 
1.86321 45.8521 4.99997 0 30.8055 -0 -0.291995 1.79216 -0.652655 -0.56395 3.58751 -1.29711 -0.56395 3.58749 -1.29711 2.35566e-005 -20.1924 2.30118e-005 4.08267e-007 0.412793 7.19036e-007 -14.3724 -6.74171 -17.8505 -51.6372 -0.688243 -21.7121 -25.5717 38.1027 -55.0705 59.506 -22.6257 2.93079 9.93923e-017 -4.47266e-016 -6.36111e-015 -9.93923e-016 -9.93923e-017 -3.18055e-015 9.93923e-017 5.46658e-016 -6.36111e-015 9.93923e-017 4.96962e-017 -6.36111e-015 -1.49089e-015 -1.83876e-015 3.18055e-015 9.93923e-017 1.49089e-016 -3.18055e-015 -7.95139e-016 -5.96354e-016 -9.54166e-015 -1.49089e-015 -1.83876e-015 3.18055e-015 9.93923e-017 1.49089e-016 -3.18055e-015 -7.95139e-016 -5.96354e-016 -9.54166e-015 9.93923e-017 4.96962e-017 -6.36111e-015 -1.49089e-015 -1.83876e-015 3.18055e-015 9.93923e-017 1.49089e-016 -3.18055e-015 -7.95139e-016 -5.96354e-016 -9.54166e-015 -1.49089e-015 -1.83876e-015 3.18055e-015 9.93923e-017 1.49089e-016 -3.18055e-015 -7.95139e-016 -5.96354e-016 -9.54166e-015 8.50537 -8.52618 18.1197 51.854 -0.65744 24.5445 24.8685 36.4019 54.481 -48.4364 -20.8823 -0.0639791 -4.37368e-007 -1.21916e-006 -1.25833e-006 -1.59028e-015 -7.95139e-016 -6.36111e-015 4.37368e-007 1.21916e-006 1.25833e-006 1.32417e-031 7.95139e-016 -9.54166e-015 -4.37368e-007 -1.21916e-006 -1.25833e-006 -1.59028e-015 -3.18055e-015 -3.18055e-015 4.37368e-007 1.21916e-006 1.25833e-006 -4.37368e-007 -1.21916e-006 -1.25833e-006 -1.59028e-015 -3.18055e-015 -3.18055e-015 4.37368e-007 1.21916e-006 1.25833e-006 1.32417e-031 7.95139e-016 -9.54166e-015 -4.37368e-007 -1.21916e-006 -1.25833e-006 -1.59028e-015 -3.18055e-015 -3.18055e-015 4.37368e-007 1.21916e-006 1.25833e-006 -4.37368e-007 -1.21916e-006 -1.25833e-006 -1.59028e-015 -3.18055e-015 -3.18055e-015 4.37368e-007 1.21916e-006 1.25833e-006 12.97 -40.8741 23.1603 165.656 81.039 -160.758 -31.1406 62.1815 40.9534 -13.146 -40.8661 -23.3503 -164.693 81.0315 159.83 32.8596 63.2443 -42.5672 
1.75357 48.7107 5.70973 0 28.9934 -0 -0.287318 1.8984 -0.603215 -0.555067 3.79972 -1.19788 -0.555067 3.79974 -1.19788 -3.28296e-005 -19.0051 -3.13107e-005 -3.15254e-007 0.504515 -3.81545e-007 -13.4097 -6.38118 -16.7875 -48.5759 -0.631112 -19.5672 -25.8134 39.0896 -50.5319 54.958 -20.9991 0.85747 -2.87866e-006 -4.79739e-006 -1.85898e-007 1.34322e-006 -2.11094e-006 -2.1148e-006 1.34322e-006 -2.11094e-006 -2.1148e-006 1.59028e-015 -1.59028e-015 -0 -2.87866e-006 -4.79739e-006 -1.85898e-007 1.34322e-006 -2.11094e-006 -2.1148e-006 1.34322e-006 -2.11094e-006 -2.1148e-006 -2.87866e-006 -4.79739e-006 -1.85898e-007 1.34322e-006 -2.11094e-006 -2.1148e-006 1.34322e-006 -2.11094e-006 -2.1148e-006 1.59028e-015 -1.59028e-015 -0 -2.87866e-006 -4.79739e-006 -1.85898e-007 1.34322e-006 -2.11094e-006 -2.1148e-006 1.34322e-006 -2.11094e-006 -2.1148e-006 -2.87866e-006 -4.79739e-006 -1.85898e-007 1.34322e-006 -2.11094e-006 -2.1148e-006 1.34322e-006 -2.11094e-006 -2.1148e-006 8.40891 -7.94554 16.745 48.7924 -0.603677 22.1881 24.9794 37.4526 50.0385 -45.0969 -19.498 1.50505 0 0 -0 -1.59028e-015 3.18055e-015 3.18055e-015 1.59028e-015 -4.77083e-015 -3.18055e-015 -0 -1.59028e-015 -0 -1.59028e-015 1.59028e-015 3.18055e-015 1.59028e-015 7.95139e-015 -3.18055e-015 3.18055e-015 0 -3.18055e-015 -1.59028e-015 1.59028e-015 3.18055e-015 1.59028e-015 7.95139e-015 -3.18055e-015 3.18055e-015 0 -3.18055e-015 -0 -1.59028e-015 -0 -1.59028e-015 1.59028e-015 3.18055e-015 1.59028e-015 7.95139e-015 -3.18055e-015 3.18055e-015 0 -3.18055e-015 -1.59028e-015 1.59028e-015 3.18055e-015 1.59028e-015 7.95139e-015 -3.18055e-015 3.18055e-015 0 -3.18055e-015 10.7715 -37.9085 20.7968 138.784 87.029 -134.456 -24.6148 59.4828 34.6415 -10.93 -37.9058 -20.9747 -136.514 86.9614 132.234 25.8659 60.5703 -35.8025 
1.7536 48.7024 6.2779 0 28.9934 -0 -0.288827 2.09823 -0.599319 -0.556218 4.19952 -1.18924 -0.556217 4.19951 -1.18924 1.14065e-005 -19.0046 -2.51233e-006 5.17353e-007 0.614075 7.00145e-007 -13.4097 -6.38122 -16.7875 -48.6551 -0.617664 -19.0677 -25.8133 39.0896 -50.5319 54.2489 -20.2973 -0.415488 -1.32417e-031 7.95139e-016 9.54166e-015 -1.32417e-031 7.95139e-016 9.54166e-015 -3.18055e-015 1.59028e-015 1.59028e-014 1.59028e-015 0 -0 -1.59028e-015 -1.59028e-015 1.90833e-014 0 3.18055e-015 -0 -1.59028e-015 0 6.36111e-015 -1.59028e-015 -1.59028e-015 1.90833e-014 0 3.18055e-015 -0 -1.59028e-015 0 6.36111e-015 1.59028e-015 0 -0 -1.59028e-015 -1.59028e-015 1.90833e-014 0 3.18055e-015 -0 -1.59028e-015 0 6.36111e-015 -1.59028e-015 -1.59028e-015 1.90833e-014 0 3.18055e-015 -0 -1.59028e-015 0 6.36111e-015 8.93362 -7.82916 16.4722 48.8714 -0.59022 21.6052 24.9794 37.4526 50.0385 -44.8154 -19.0954 2.61199 -1.52471e-006 -2.14038e-006 2.04519e-006 -1.52471e-006 -2.14038e-006 2.04519e-006 -1.52471e-006 -2.14038e-006 2.04519e-006 -1.59028e-015 0 3.18055e-015 -1.52471e-006 -2.14038e-006 2.04519e-006 -1.52471e-006 -2.14038e-006 2.04519e-006 -1.52471e-006 -2.14038e-006 2.04519e-006 -1.52471e-006 -2.14038e-006 2.04519e-006 -1.52471e-006 -2.14038e-006 2.04519e-006 -1.52471e-006 -2.14038e-006 2.04519e-006 -1.59028e-015 0 3.18055e-015 -1.52471e-006 -2.14038e-006 2.04519e-006 -1.52471e-006 -2.14038e-006 2.04519e-006 -1.52471e-006 -2.14038e-006 2.04519e-006 -1.52471e-006 -2.14038e-006 2.04519e-006 -1.52471e-006 -2.14038e-006 2.04519e-006 -1.52471e-006 -2.14038e-006 2.04519e-006 10.6339 -37.1685 20.596 130.126 87.53 -125.839 -24.5595 59.4444 34.5713 -10.7922 -37.1662 -20.7765 -127.709 87.4404 123.477 25.8086 60.5338 -35.7303 
